<?xml version="1.0" encoding="utf-8"?>
<!-- Generator: Adobe Illustrator 26.0.2, SVG Export Plug-In . SVG Version: 6.00 Build 0)  -->
<svg version="1.1" id="Layer_1" xmlns="http://www.w3.org/2000/svg" xmlns:xlink="http://www.w3.org/1999/xlink" x="0px" y="0px"
	 viewBox="0 0 680 586.2" style="enable-background:new 0 0 680 586.2;" xml:space="preserve">
<style type="text/css">
	.st0{fill:none;stroke:#128E13;stroke-width:2;stroke-miterlimit:10;}
	.st1{fill:none;stroke:#128E13;stroke-width:3;stroke-miterlimit:10;}
</style>
<g>
	<path class="st0" d="M336.8,115.2l-27-12.1c-4.9-23.2-15.1-33.7-33.8-35.8c-16-1-30.7,8.6-36.2,23.6c-6,15-3.3,31.5,8.4,40.8
		c11.5,9.1,27.2,15.9,48.6,0.5l27,12.1c-15.4,25.3-50.1,31.3-82.3,15.3c-29.3-14.6-42.1-49.6-29.1-79.7
		c15.1-35.8,48.4-46.4,75.3-37.9C325,53.7,344.8,83.7,336.8,115.2z"/>
	<path class="st0" d="M586,335.8c18.1,22.9,20.1,59-9,86.8c-24.3,23.6-62.9,24.1-87.8,1.2c-27.3-25.3-34.3-61-15.5-85.2l21.6,21.7
		c-7.1,26.3,5.3,39.1,18.4,46.8c13.2,7.9,30.2,4.4,42.5-6.9c12.5-10.9,16.4-28.7,9.5-43.7c-9-17.4-22.8-23.3-47.1-19.6l-21.6-21.7
		C524.6,295.8,560.9,303.9,586,335.8z"/>
	<path class="st0" d="M194.6,319.8l-28.7,11.6c-21.1-13.1-36.3-13-51.5-0.4c-12.3,11.3-15.7,29.4-8.4,44.4
		c7,15.4,21.4,25.3,36.8,23.2c15.2-2,31.7-9,35.6-36.2l28.7-11.6c7.9,29.9-12.7,60.4-48.1,73.1c-32.3,11.5-67.9-4.2-81.2-35.8
		c-16-37.3,0.1-70,26-84.2C139.7,284.1,176.7,290.9,194.6,319.8z"/>
	<path class="st0" d="M501,63.5c16.8-9.1,40.4-6.4,55,15.5c12.5,18.3,8.6,43.3-9.1,56.8c-19.4,14.8-43.2,15.3-56.7,0.5l16.4-11.5
		c16.2,7.5,25.8,0.9,32.3-6.6c6.6-7.7,6.2-19,0.3-28.2c-5.6-9.3-16.7-13.8-27.2-11c-12.2,3.9-17.6,12.1-17.9,28.2l-16.4,11.5
		C468.3,98.7,477.6,76.1,501,63.5z"/>
	<path class="st0" d="M386.9,346l-19.3,10c-15.6-7.8-26.2-6.7-36,3c-7.9,8.7-9.1,21.5-3,31.6c5.9,10.3,16.6,16.3,27.2,13.8
		c10.5-2.4,21.6-8.3,22.5-27.6l19.3-9.9c7.5,20.4-4.9,43-28.9,54.2c-21.8,10.1-47.7,1.4-59-19.8c-13.6-25-4.5-48.9,12.7-60.5
		C346.2,324.6,372.5,326.9,386.9,346z"/>
	<path class="st0" d="M144.2,108.7l-19.3,10c-15.6-7.8-26.2-6.7-36,3c-7.9,8.7-9.1,21.5-3,31.6c5.9,10.3,16.6,16.3,27.2,13.8
		c10.5-2.4,21.6-8.3,22.5-27.6l19.3-9.9c7.5,20.4-4.9,43-28.9,54.2c-21.8,10.1-47.7,1.4-59-19.8c-13.6-25-4.5-48.9,12.7-60.5
		C103.5,87.3,129.8,89.7,144.2,108.7z"/>
	<path class="st0" d="M411.3,151.6c-6.6,0.3-12.2-4.8-12.5-11.3c0-0.3,0-0.6,0-0.9c0.1-6.9,5.8-12.4,12.8-12.3
		c6.6,0,11.9,5.4,11.9,12c0,0.1,0,0.1,0,0.2c0.6,6.3-4,11.8-10.3,12.4C412.5,151.7,411.9,151.7,411.3,151.6z"/>
	<path class="st0" d="M260.7,348.9c-6.6,0.3-12.2-4.8-12.5-11.3c0-0.3,0-0.6,0-0.9c0.1-6.9,5.8-12.4,12.8-12.3
		c6.6,0,11.9,5.4,11.9,12c0,0.1,0,0.1,0,0.2c0.6,6.3-4,11.8-10.3,12.4C261.9,349,261.3,349,260.7,348.9z"/>
	<path class="st0" d="M411.2,313.6c-2.8,0.1-5.3-2-5.4-4.9c0-0.1,0-0.3,0-0.4c0.1-3,2.5-5.4,5.5-5.3c2.8,0,5.1,2.3,5.1,5.2
		c0,0,0,0.1,0,0.1c0.3,2.7-1.7,5.1-4.4,5.4C411.8,313.6,411.5,313.7,411.2,313.6z"/>
	<path class="st0" d="M498.2,179.1c-2.8,0.1-5.3-2-5.4-4.9c0-0.1,0-0.3,0-0.4c0.1-3,2.5-5.4,5.5-5.3c2.8,0,5.1,2.3,5.1,5.2
		c0,0,0,0.1,0,0.1c0.3,2.7-1.7,5.1-4.4,5.4C498.7,179.1,498.5,179.1,498.2,179.1z"/>
	<path class="st0" d="M430.7,94.8c-4.3,0.2-8-3.1-8.2-7.4c0-0.2,0-0.4,0-0.6c0.1-4.5,3.8-8.2,8.4-8.1c4.3,0,7.8,3.5,7.8,7.9
		c0,0,0,0.1,0,0.1c0.4,4.1-2.6,7.8-6.8,8.2C431.5,94.8,431.1,94.8,430.7,94.8z"/>
	<path class="st0" d="M219.5,298.3c-2.8,0.1-5.3-2-5.4-4.9c0-0.1,0-0.3,0-0.4c0.1-3,2.5-5.4,5.5-5.3c2.8,0,5.1,2.3,5.1,5.2
		c0,0,0,0.1,0,0.1c0.3,2.7-1.7,5.1-4.4,5.4C220,298.3,219.8,298.3,219.5,298.3z"/>
	<path class="st0" d="M477.8,295.6c-1.9,0.1-3.6-1.4-3.6-3.3c0-0.1,0-0.2,0-0.3c0-2,1.7-3.6,3.7-3.6c1.9,0,3.5,1.6,3.5,3.5
		c0,0,0,0,0,0.1c0.2,1.8-1.2,3.4-3,3.6C478.1,295.6,477.9,295.6,477.8,295.6z"/>
	<path class="st0" d="M188.9,166.7c-1.9,0.1-3.6-1.4-3.6-3.3c0-0.1,0-0.2,0-0.3c0-2,1.7-3.6,3.7-3.6c1.9,0,3.5,1.6,3.5,3.5
		c0,0,0,0,0,0.1c0.2,1.8-1.2,3.4-3,3.6C189.3,166.8,189.1,166.8,188.9,166.7z"/>
	<path class="st0" d="M383.2,78.6c-1.9,0.1-3.6-1.4-3.6-3.3c0-0.1,0-0.2,0-0.3c0-2,1.7-3.6,3.7-3.6c1.9,0,3.5,1.6,3.5,3.5
		c0,0,0,0,0,0.1c0.2,1.8-1.2,3.4-3,3.6C383.6,78.6,383.4,78.6,383.2,78.6z"/>
	<path class="st0" d="M356.9,173.8c-2.8,0.1-5.3-2-5.4-4.9c0-0.1,0-0.3,0-0.4c0.1-3,2.5-5.4,5.5-5.3c2.8,0,5.1,2.3,5.1,5.2
		c0,0,0,0.1,0,0.1c0.3,2.7-1.7,5.1-4.4,5.4C357.4,173.8,357.1,173.8,356.9,173.8z"/>
	<path class="st0" d="M133.1,247.6c-2.8,0.1-5.3-2-5.4-4.9c0-0.1,0-0.3,0-0.4c0.1-3,2.5-5.4,5.5-5.3c2.8,0,5.1,2.3,5.1,5.2
		c0,0,0,0.1,0,0.1c0.3,2.7-1.7,5.1-4.4,5.4C133.6,247.7,133.4,247.7,133.1,247.6z"/>
	<path class="st0" d="M77.8,254.7c-6.6,0.3-12.2-4.8-12.5-11.3c0-0.3,0-0.6,0-0.9c0.1-6.9,5.8-12.4,12.8-12.3
		c6.6,0,11.9,5.4,11.9,12c0,0.1,0,0.1,0,0.2c0.6,6.3-4,11.8-10.3,12.4C79,254.7,78.4,254.7,77.8,254.7z"/>
	<path class="st0" d="M582.6,183.8c-5.6,0.3-10.4-4.1-10.7-9.7c0-0.3,0-0.5,0-0.8c0.1-5.9,5-10.6,10.9-10.5
		c5.6,0,10.2,4.6,10.1,10.2c0,0.1,0,0.1,0,0.2c0.5,5.4-3.4,10.1-8.8,10.6C583.6,183.8,583.1,183.9,582.6,183.8z"/>
	<path class="st0" d="M616.6,268.6c-7.5,0.4-13.8-5.4-14.2-12.8c0-0.4,0-0.7,0-1.1c0.2-7.8,6.6-14.1,14.5-14
		c7.5,0,13.5,6.1,13.5,13.6c0,0.1,0,0.1,0,0.2c0.7,7.1-4.6,13.4-11.7,14.1C617.9,268.6,617.3,268.7,616.6,268.6z"/>
</g>
<g transform="translate(-98.077 -335.815)">
	<g transform="translate(98.077 335.815)">
		<path class="st1" d="M248.2,222.3h-17.6c-8.3-11.4-16.4-14.6-27.1-11.2c-8.9,3.3-14.6,12.2-13.9,21.7c0.4,9.6,5.9,17.9,14.5,20.1
			c8.4,2.2,18.7,2,26.5-11.6h17.6c-2.2,17.5-19.6,29.2-41,28.3c-19.5-0.8-35-16.7-35.2-36.2c-0.5-23.1,15-37,31.7-38.9
			C226.8,191.7,244.9,203.2,248.2,222.3z"/>
		<path class="st1" d="M320.7,213.5H335c0.1,1.7,0.4,3.4,0.4,5.2c0.1,7.4-0.1,14.8,0.1,22.2c0.2,7.3,2.5,10.9,7.8,12.6
			c5.4,1.9,11.3-0.8,13.3-6.2c0-0.1,0.1-0.2,0.1-0.3c0.8-2.7,1.1-5.4,1.1-8.2c0.1-8.3,0.1-16.6,0.1-25.2h15.7
			c0.2,1.3,0.3,2.7,0.4,4.1c0,15.9,0.3,31.8-0.1,47.7c-0.2,4.8-1.2,9.5-3,13.9c-3.6,8.9-11.6,12.4-20.4,13
			c-10.3,0.7-20.6,0.2-31.4,0.2c1-3.1,1.6-5.8,2.7-8.2c1.2-3.4,4.5-5.7,8.2-5.5c5.2,0,10.4,0,15.5,0c9.7-0.1,13.7-5.4,11.7-15.4
			c-2.6,1.9-5.5,3.5-8.5,4.8c-8.4,2.7-17.5-0.1-22.9-7c-3.3-3.5-5.3-8.2-5.5-13c-0.3-10.9-0.2-21.8-0.2-32.7
			C320.1,214.6,320.3,214,320.7,213.5z"/>
		<path class="st1" d="M312.6,245h-41.4c-0.4,3.5,1.4,7,4.6,8.5c4.1,2.7,9.4,3,13.8,0.8c4.9-2.7,9.8-2.6,15-2.6c1.8,0,3.6,0,5.6,0
			c-3.1,13.2-18.4,21.1-34.6,17.3c-17.1-4-23.2-18.1-21.7-31.5c1.9-17.2,15.9-27.4,34.1-25.2C301.1,213.8,313.8,223.8,312.6,245z
			 M271.5,235h23.9c-1.4-5.4-6.4-9.1-11.9-8.9C277.8,225.8,272.8,229.5,271.5,235L271.5,235z"/>
		<path class="st1" d="M571.4,244.9h-40c0,5.3,2,8.7,6.8,9.7c3.9,1,8,0.8,11.8-0.5c3.9-1.7,8.1-2.5,12.3-2.3c2.6,0,5.1,0,7.8,0
			c-4.1,14.9-19.4,20.8-35.3,17c-17.7-4.2-23.3-19.6-20.7-33.6c3.4-18.3,19.3-25.4,35.5-22.6C565.2,215.2,574.3,228.8,571.4,244.9z
			 M531.2,235h24c-1.5-5.4-6.4-9.1-12-8.9C537.6,225.8,532.6,229.5,531.2,235L531.2,235z"/>
		<path class="st1" d="M383.2,195.7h15.5V213h26.2v15.1h-25.6c-0.9,7.3-0.7,14.7,0.4,22c0.5,2.9,3.1,4.9,6.1,4.7
			c2.9,0.4,5.6-1.3,6.5-4.1c0.6-1.6,0.9-3.2,1.3-5h14.3c2.5,9.3-2.5,19-11.5,22.4c-6.2,2-12.8,2.2-19.1,0.4
			c-8-1.9-13.7-9.1-13.7-17.4c-0.4-13.1-0.3-26.3-0.4-39.4C383.2,206.6,383.2,201.4,383.2,195.7z"/>
		<path class="st1" d="M498.4,213.4h16.7l-19.5,54.5h-20.4l-19.5-54.3h17.2l12,37.8l1.3,0.1C490.8,239,493.9,226.1,498.4,213.4z"/>
		<path class="st1" d="M436.1,213.4h14.5v54.5h-14C435.2,264.2,434.7,221.9,436.1,213.4z"/>
		<path class="st1" d="M442.3,206c-4.6,0.2-8.5-3.3-8.7-7.9c0-0.2,0-0.4,0-0.7c0.1-4.8,4.1-8.7,8.9-8.6c4.6,0,8.3,3.8,8.3,8.4
			c0,0,0,0.1,0,0.1c0.4,4.4-2.8,8.3-7.2,8.7C443.1,206,442.7,206,442.3,206z"/>
	</g>
</g>
</svg>
