<svg xmlns="http://www.w3.org/2000/svg" width="202.98" height="253.202" viewBox="0 0 202.98 253.202"><g transform="translate(-178.521 -236.866)"><path d="M313.686,451.851v12.867c2.872,0,5.706-.032,8.539.008,3.771.054,6.1,1.957,6.188,4.978.089,3.117-2.3,5.1-6.25,5.138-2.758.027-5.515,0-8.771,0,0,3.039.012,5.869,0,8.7-.048,9.417-5.088,14.479-14.459,14.5-7.814.017-15.63.042-23.444-.01-8.381-.055-13.623-5.317-13.762-13.756-.05-3.034-.008-6.07-.008-9.435-3.327,0-6.272.043-9.214-.011-3.517-.066-5.762-2.074-5.744-5.032.019-2.92,2.314-4.982,5.792-5.066,2.94-.072,5.883-.015,8.99-.015v-12.8c-.734-.094-1.393-.231-2.055-.256-7.355-.272-11.629-4.458-11.465-11.823a66.462,66.462,0,0,0-10.84-38.191c-2.131-3.32-4.561-6.46-6.987-9.579-33.864-43.519-7.575-108.421,47.049-116.117,46.1-6.5,86.381,31.268,82.7,77.67a70.183,70.183,0,0,1-16.961,40.954c-10.49,12.252-15.49,26.436-15.709,42.439-.012.89-.012,1.781-.022,2.671-.089,7.591-4.044,11.649-11.659,11.974C315.014,451.687,314.444,451.774,313.686,451.851Zm2.967-10.439c.193-.319.365-.479.382-.655a19.4,19.4,0,0,0,.128-2.066c-.075-19.459,6.126-36.474,18.739-51.468,12.05-14.324,16.31-31.235,13.295-49.68-4.4-26.9-26.434-48.248-52.7-51.559-28.437-3.585-55,10.915-65.981,36.907-9.816,23.228-6.4,45.091,9.173,64.9,11.819,15.028,18.714,31.732,18.433,51.08a23.361,23.361,0,0,0,.237,2.544Zm-44.369,10.372a6.09,6.09,0,0,0-.288,1.241q-.028,15.726-.027,31.452c0,2.547,1.383,3.426,3.786,3.41,7.814-.053,15.628,0,23.442-.028,3.456-.01,4.093-.666,4.113-4.247q.081-14.539.09-29.078c0-.931-.146-1.862-.221-2.75Z" transform="translate(-7.625 -7.998)" fill="#fff"/><path d="M310.442,247.676c0,1.976.111,3.961-.026,5.928-.215,3.093-2.341,5.122-5.1,5.075a4.9,4.9,0,0,1-4.9-4.937c-.17-3.946-.173-7.909-.021-11.856a4.837,4.837,0,0,1,5.089-5.02c2.875.04,4.757,1.936,4.959,5.177.116,1.87.021,3.754.021,5.632Z" transform="translate(-25.388 0)" fill="#fff"/><path d="M189.414,368.649c-1.969,0-3.942.08-5.907-.013a4.923,4.923,0,0,1-4.983-4.808,4.858,4.858,0,0,1,4.347-5.126,118.864,118.864,0,0,1,13.276.02,4.85,4.85,0,0,1,4.268,5.195,4.971,4.971,0,0,1-4.8,4.705C193.555,368.739,191.482,368.644,189.414,368.649Z" transform="translate(0 -25.367)" fill="#fff"/><path d="M418.315,368.648c-1.968,0-3.94.07-5.905-.013a5.009,5.009,0,0,1-.256-10.014c4.126-.17,8.273-.178,12.4.024a5,5,0,0,1-.33,9.983C422.257,368.724,420.284,368.646,418.315,368.648Z" transform="translate(-47.703 -25.36)" fill="#fff"/><path d="M394.788,448.1c-.887,1.183-1.632,3.119-2.967,3.7-1.469.641-4.056.74-5.151-.154A91.269,91.269,0,0,1,377,442.143a4.59,4.59,0,0,1,.5-6.423c1.873-1.771,4.242-2.287,6.165-.619,3.483,3.02,6.665,6.4,9.86,9.733C394.138,445.475,394.236,446.611,394.788,448.1Z" transform="translate(-41.158 -41.122)" fill="#fff"/><path d="M219.066,271.633a27.429,27.429,0,0,1,4.194,2.577c2.614,2.41,5.1,4.959,7.569,7.525,2.376,2.473,2.5,5.26.457,7.389s-5.2,2.06-7.624-.294q-4.043-3.923-7.939-7.994c-1.606-1.671-2.06-3.83-.811-5.7C215.851,273.725,217.579,272.841,219.066,271.633Z" transform="translate(-7.438 -7.249)" fill="#fff"/><path d="M233.375,439.08a27.255,27.255,0,0,1-2.572,4.193c-2.412,2.613-4.96,5.105-7.533,7.563-2.422,2.314-5.347,2.45-7.4.484-2.144-2.052-2.067-5.145.319-7.622,2.606-2.7,5.262-5.366,7.986-7.951,1.647-1.563,3.778-2.18,5.691-.826C231.26,435.909,232.161,437.594,233.375,439.08Z" transform="translate(-7.466 -41.141)" fill="#fff"/><path d="M390.08,272.015c1.2,1.014,3.175,1.919,3.731,3.369a6.092,6.092,0,0,1-.621,5.145,82.817,82.817,0,0,1-8.922,9.059c-1.98,1.784-4.363,1.716-6.473-.038-1.941-1.612-2.54-4.485-.866-6.376,3.065-3.464,6.443-6.657,9.8-9.852C387.373,272.705,388.51,272.6,390.08,272.015Z" transform="translate(-41.166 -7.329)" fill="#fff"/><path d="M281.974,376.474c0-4.249,1.945-6.55,4.795-6.7,2.884-.148,4.945,2,5.317,5.529.527,5,3.893,8.509,8.679,9.038a9.584,9.584,0,0,0,9.917-6.854c1.107-3.619.207-6.844-2.976-8.829a61.9,61.9,0,0,0-7.48-3.494,92.48,92.48,0,0,1-8.877-4.018c-6.394-3.741-9.945-9.315-9.281-16.918.677-7.749,4.777-13.326,11.872-16.41,2.1-.912,2.764-1.88,2.724-4.074-.062-3.354,2.01-5.517,4.853-5.594,2.928-.078,5.191,2.166,5.149,5.645-.026,2.213.677,3.164,2.739,4.069,7.093,3.111,11.12,8.671,11.769,16.452.319,3.836-1.472,6.163-4.56,6.383-3.107.222-5.109-1.813-5.508-5.6-.514-4.876-3.925-8.4-8.5-8.792a9.372,9.372,0,0,0-10.117,6.9c-.98,3.306-.258,6.244,2.57,8.146a54.1,54.1,0,0,0,7.878,3.975c2.777,1.264,5.757,2.136,8.418,3.6,6.735,3.694,10.372,9.389,9.784,17.224-.584,7.765-4.63,13.354-11.7,16.517-1.983.887-2.883,1.718-2.846,4,.059,3.6-2.029,5.7-5.053,5.671s-4.992-2.123-4.967-5.768c.014-2.1-.7-2.995-2.644-3.839C286.445,389.488,282.564,383.571,281.974,376.474Z" transform="translate(-21.571 -16.948)" fill="#fff"/></g></svg>